<?xml version="1.0" encoding="UTF-8" standalone="no"?>
<!-- Created with Inkscape (http://www.inkscape.org/) -->

<svg
   xmlns:dc="http://purl.org/dc/elements/1.1/"
   xmlns:cc="http://creativecommons.org/ns#"
   xmlns:rdf="http://www.w3.org/1999/02/22-rdf-syntax-ns#"
   xmlns:svg="http://www.w3.org/2000/svg"
   xmlns="http://www.w3.org/2000/svg"
   xmlns:sodipodi="http://sodipodi.sourceforge.net/DTD/sodipodi-0.dtd"
   xmlns:inkscape="http://www.inkscape.org/namespaces/inkscape"
   width="180mm"
   height="128mm"
   viewBox="0 0 180 128"
   version="1.1"
   id="svg8"
   sodipodi:docname="queens_logo_night.svg"
   inkscape:version="0.92.5 (2060ec1f9f, 2020-04-08)">
  <defs
     id="defs2">
    <inkscape:path-effect
       effect="bspline"
       id="path-effect838"
       is_visible="true"
       weight="33.333333"
       steps="2"
       helper_size="0"
       apply_no_weight="true"
       apply_with_weight="true"
       only_selected="false" />
    <inkscape:path-effect
       effect="bspline"
       id="path-effect834"
       is_visible="true"
       weight="33.333333"
       steps="2"
       helper_size="0"
       apply_no_weight="true"
       apply_with_weight="true"
       only_selected="false" />
    <inkscape:path-effect
       effect="bspline"
       id="path-effect830"
       is_visible="true"
       weight="33.333333"
       steps="2"
       helper_size="0"
       apply_no_weight="true"
       apply_with_weight="true"
       only_selected="false" />
    <inkscape:path-effect
       effect="bspline"
       id="path-effect838-3"
       is_visible="true"
       weight="33.333333"
       steps="2"
       helper_size="0"
       apply_no_weight="true"
       apply_with_weight="true"
       only_selected="false" />
    <inkscape:path-effect
       effect="bspline"
       id="path-effect834-7"
       is_visible="true"
       weight="33.333333"
       steps="2"
       helper_size="0"
       apply_no_weight="true"
       apply_with_weight="true"
       only_selected="false" />
    <inkscape:path-effect
       effect="bspline"
       id="path-effect830-5"
       is_visible="true"
       weight="33.333333"
       steps="2"
       helper_size="0"
       apply_no_weight="true"
       apply_with_weight="true"
       only_selected="false" />
    <inkscape:path-effect
       effect="bspline"
       id="path-effect838-3-6"
       is_visible="true"
       weight="33.333333"
       steps="2"
       helper_size="0"
       apply_no_weight="true"
       apply_with_weight="true"
       only_selected="false" />
    <inkscape:path-effect
       effect="bspline"
       id="path-effect838-3-9"
       is_visible="true"
       weight="33.333333"
       steps="2"
       helper_size="0"
       apply_no_weight="true"
       apply_with_weight="true"
       only_selected="false" />
    <inkscape:path-effect
       effect="bspline"
       id="path-effect838-3-0"
       is_visible="true"
       weight="33.333333"
       steps="2"
       helper_size="0"
       apply_no_weight="true"
       apply_with_weight="true"
       only_selected="false" />
    <inkscape:path-effect
       effect="bspline"
       id="path-effect838-3-3"
       is_visible="true"
       weight="33.333333"
       steps="2"
       helper_size="0"
       apply_no_weight="true"
       apply_with_weight="true"
       only_selected="false" />
    <inkscape:path-effect
       effect="bspline"
       id="path-effect834-0"
       is_visible="true"
       weight="33.333333"
       steps="2"
       helper_size="0"
       apply_no_weight="true"
       apply_with_weight="true"
       only_selected="false" />
    <inkscape:path-effect
       effect="bspline"
       id="path-effect834-0-2"
       is_visible="true"
       weight="33.333333"
       steps="2"
       helper_size="0"
       apply_no_weight="true"
       apply_with_weight="true"
       only_selected="false" />
    <inkscape:path-effect
       effect="bspline"
       id="path-effect830-1"
       is_visible="true"
       weight="33.333333"
       steps="2"
       helper_size="0"
       apply_no_weight="true"
       apply_with_weight="true"
       only_selected="false" />
    <inkscape:path-effect
       effect="bspline"
       id="path-effect830-7"
       is_visible="true"
       weight="33.333333"
       steps="2"
       helper_size="0"
       apply_no_weight="true"
       apply_with_weight="true"
       only_selected="false" />
    <inkscape:path-effect
       effect="bspline"
       id="path-effect830-1-9"
       is_visible="true"
       weight="33.333333"
       steps="2"
       helper_size="0"
       apply_no_weight="true"
       apply_with_weight="true"
       only_selected="false" />
    <inkscape:path-effect
       effect="bspline"
       id="path-effect838-3-3-2"
       is_visible="true"
       weight="33.333333"
       steps="2"
       helper_size="0"
       apply_no_weight="true"
       apply_with_weight="true"
       only_selected="false" />
    <inkscape:path-effect
       effect="bspline"
       id="path-effect834-02"
       is_visible="true"
       weight="33.333333"
       steps="2"
       helper_size="0"
       apply_no_weight="true"
       apply_with_weight="true"
       only_selected="false" />
    <inkscape:path-effect
       effect="bspline"
       id="path-effect834-0-2-3"
       is_visible="true"
       weight="33.333333"
       steps="2"
       helper_size="0"
       apply_no_weight="true"
       apply_with_weight="true"
       only_selected="false" />
    <inkscape:path-effect
       effect="bspline"
       id="path-effect830-3"
       is_visible="true"
       weight="33.333333"
       steps="2"
       helper_size="0"
       apply_no_weight="true"
       apply_with_weight="true"
       only_selected="false" />
    <inkscape:path-effect
       effect="bspline"
       id="path-effect830-1-6"
       is_visible="true"
       weight="33.333333"
       steps="2"
       helper_size="0"
       apply_no_weight="true"
       apply_with_weight="true"
       only_selected="false" />
  </defs>
  <sodipodi:namedview
     id="base"
     pagecolor="#ffffff"
     bordercolor="#666666"
     borderopacity="1.0"
     inkscape:pageopacity="0.0"
     inkscape:pageshadow="2"
     inkscape:zoom="0.7"
     inkscape:cx="-193.51006"
     inkscape:cy="150.98447"
     inkscape:document-units="mm"
     inkscape:current-layer="text1228"
     showgrid="false"
     inkscape:window-width="1848"
     inkscape:window-height="1016"
     inkscape:window-x="72"
     inkscape:window-y="27"
     inkscape:window-maximized="1" />
  <metadata
     id="metadata5">
    <rdf:RDF>
      <cc:Work
         rdf:about="">
        <dc:format>image/svg+xml</dc:format>
        <dc:type
           rdf:resource="http://purl.org/dc/dcmitype/StillImage" />
        <dc:title />
      </cc:Work>
    </rdf:RDF>
  </metadata>
  <g
     inkscape:label="Layer 1"
     inkscape:groupmode="layer"
     id="layer1"
     transform="translate(0,-169)">
    <g
       id="g1045"
       transform="translate(-217.43369,213.50992)">
      <path
         sodipodi:nodetypes="ccccccccccc"
         inkscape:connector-curvature="0"
         d="m 17.907061,172.71965 c 14.904391,-2.1121 29.808491,-4.22416 41.207706,-8.20785 11.399215,-3.9837 19.293755,-9.839 24.581644,-17.72484 5.287888,-7.88585 7.969823,-17.80272 10.576884,-26.40353 2.60706,-8.6008 5.138947,-15.8847 7.076475,-19.92245 1.93754,-4.037744 3.3323,-4.859471 4.6228,-4.859358 1.2905,1.12e-4 2.6853,0.821862 4.62262,4.859488 1.93732,4.03762 4.46921,11.32154 7.07627,19.92234 2.60706,8.60079 5.28899,18.51766 10.57688,26.40351 5.28789,7.88584 13.18243,13.74114 24.58164,17.72484 11.39922,3.98369 26.30332,6.09575 41.20771,8.20785"
         inkscape:original-d="m 17.907061,172.71965 c 14.90436,-2.11232 29.80846,-4.22438 44.71229,-6.33618 7.8946,-5.85541 15.78914,-11.71071 23.683,-17.56544 2.68213,-9.91687 5.36406,-19.83374 8.0458,-29.75059 2.532359,-7.28476 5.064246,-14.56866 7.596089,-21.852934 1.34302,-0.79135 2.73778,-1.613081 4.02814,-2.373185 1.29087,0.760104 2.68567,1.581852 4.02813,2.373185 2.53232,7.284114 5.06421,14.568034 7.59609,21.852934 2.68174,9.91685 5.36367,19.83372 8.0458,29.75059 7.89386,5.85473 15.7884,11.71003 23.683,17.56544 14.90383,2.1118 29.80793,4.22386 44.71229,6.33618"
         inkscape:path-effect="#path-effect838-3-3"
         style="fill:none;stroke:#5cbbfe;stroke-width:1.5;stroke-linecap:round;stroke-linejoin:miter;stroke-miterlimit:4;stroke-dasharray:none;stroke-dashoffset:0;stroke-opacity:1"
         transform="matrix(-1,0,0,1,413.40606,-137.58332)"
         id="path836-6-6" />
      <g
         id="g1039">
        <path
           style="fill:none;stroke:#5cbbfe;stroke-width:1.5;stroke-linecap:round;stroke-linejoin:miter;stroke-miterlimit:4;stroke-dasharray:none;stroke-opacity:1"
           d="m 17.907059,172.71966 c 4.921891,-6.62255 9.886944,-13.30318 16.058339,-18.96183 6.171394,-5.65865 13.482461,-10.24776 19.805198,-12.69724 6.322737,-2.44948 11.629636,-2.74174 21.759398,2.12608 10.129763,4.86782 25.083026,14.89566 45.638326,20.67782 20.55529,5.78216 46.71246,7.31867 72.86937,8.85517"
           id="path832"
           inkscape:connector-curvature="0"
           inkscape:path-effect="#path-effect834"
           inkscape:original-d="m 17.907059,172.71966 c 4.921936,-6.62252 9.886989,-13.30315 14.859939,-19.9945 7.369748,-4.62605 14.680817,-9.21516 22.019979,-13.82181 5.306343,-0.29248 10.613241,-0.58475 15.919465,-0.87673 14.953523,10.02756 29.906788,20.0554 44.859778,30.0835 26.15741,1.53625 52.31458,3.07276 78.47147,4.60954"
           sodipodi:nodetypes="cccccc"
           transform="translate(201.46131,-137.58333)" />
        <path
           style="fill:none;stroke:#5cbbfe;stroke-width:1.5;stroke-linecap:round;stroke-linejoin:miter;stroke-miterlimit:4;stroke-dasharray:none;stroke-opacity:1"
           d="m 17.907059,172.71966 c 4.921891,-6.62255 9.886944,-13.30318 16.058339,-18.96183 6.171394,-5.65865 13.482461,-10.24776 19.805198,-12.69724 6.322737,-2.44948 11.629636,-2.74174 21.759398,2.12608 10.129763,4.86782 25.083026,14.89566 45.638326,20.67782 20.55529,5.78216 46.71246,7.31867 72.86937,8.85517"
           id="path832-6-6"
           inkscape:connector-curvature="0"
           inkscape:path-effect="#path-effect834-0-2"
           inkscape:original-d="m 17.907059,172.71966 c 4.921936,-6.62252 9.886989,-13.30315 14.859939,-19.9945 7.369748,-4.62605 14.680817,-9.21516 22.019979,-13.82181 5.306343,-0.29248 10.613241,-0.58475 15.919465,-0.87673 14.953523,10.02756 29.906788,20.0554 44.859778,30.0835 26.15741,1.53625 52.31458,3.07276 78.47147,4.60954"
           sodipodi:nodetypes="cccccc"
           transform="matrix(-1,0,0,1,413.40606,-137.58333)" />
      </g>
    </g>
    <g
       id="g1035"
       transform="translate(-217.43369,213.50992)"
       style="stroke:#ffffff;stroke-opacity:1">
      <path
         transform="translate(201.46131,-137.58333)"
         sodipodi:nodetypes="cccccc"
         inkscape:original-d="m 17.907059,172.71966 c 0,0 1.693034,-27.53004 2.53906,-41.29313 4.498975,-3.47452 8.998346,-6.94928 13.497112,-10.42352 11.938285,13.85319 23.876357,27.7067 35.814116,41.56041 26.638093,3.29606 53.232093,6.58696 79.913593,9.88898 14.81355,0.089 29.5781,0.17791 44.36675,0.26726"
         inkscape:path-effect="#path-effect830"
         inkscape:connector-curvature="0"
         id="path828"
         d="m 17.907059,172.71966 c 0.846353,-13.76438 1.692787,-27.53006 4.365426,-36.14883 2.672639,-8.61878 7.172008,-12.09354 15.390379,-6.90397 8.218372,5.18958 20.156445,19.04309 39.444492,27.618 19.288048,8.57491 45.882044,11.86581 66.629594,13.56129 20.74754,1.69549 35.51209,1.78442 50.30074,1.87351"
         style="fill:none;stroke:#ffffff;stroke-width:1.5;stroke-linecap:round;stroke-linejoin:miter;stroke-miterlimit:4;stroke-dasharray:none;stroke-opacity:1" />
      <path
         transform="matrix(-1,0,0,1,413.40606,-137.58333)"
         sodipodi:nodetypes="cccccc"
         inkscape:original-d="m 17.907059,172.71966 c 0,0 1.693034,-27.53004 2.53906,-41.29313 4.498975,-3.47452 8.998346,-6.94928 13.497112,-10.42352 11.938285,13.85319 23.876357,27.7067 35.814116,41.56041 26.638093,3.29606 53.232093,6.58696 79.913593,9.88898 14.81355,0.089 29.5781,0.17791 44.36675,0.26726"
         inkscape:path-effect="#path-effect830-1"
         inkscape:connector-curvature="0"
         id="path828-8"
         d="m 17.907059,172.71966 c 0.846353,-13.76438 1.692787,-27.53006 4.365426,-36.14883 2.672639,-8.61878 7.172008,-12.09354 15.390379,-6.90397 8.218372,5.18958 20.156445,19.04309 39.444492,27.618 19.288048,8.57491 45.882044,11.86581 66.629594,13.56129 20.74754,1.69549 35.51209,1.78442 50.30074,1.87351"
         style="fill:none;stroke:#ffffff;stroke-width:1.5;stroke-linecap:round;stroke-linejoin:miter;stroke-miterlimit:4;stroke-dasharray:none;stroke-opacity:1" />
    </g>
    <g
       aria-label="QUEENS"
       style="font-style:normal;font-weight:normal;font-size:43.39166641px;line-height:1.25;font-family:sans-serif;letter-spacing:0px;word-spacing:0px;fill:#ffffff;fill-opacity:1;stroke:none;stroke-width:0.26458332;stroke-opacity:1"
       id="text1228">
      <path
         d="m 16.551444,261.92615 q -4.547526,0 -7.2347004,3.38997 -2.6665038,3.38998 -2.6665038,9.23975 0,5.8291 2.6665038,9.21907 2.6871744,3.38998 7.2347004,3.38998 4.547526,0 7.193359,-3.38998 2.666504,-3.38997 2.666504,-9.21907 0,-5.84977 -2.666504,-9.23975 -2.645833,-3.38997 -7.193359,-3.38997 z m 5.849772,27.47119 5.498372,6.01514 h -5.04362 l -4.568196,-4.94027 q -0.682129,0.0413 -1.054199,0.062 -0.3514,0.0207 -0.682129,0.0207 -6.51123,0 -10.4179685,-4.34082 -3.8860676,-4.36149 -3.8860676,-11.6582 0,-7.31738 3.8860676,-11.6582 3.9067385,-4.3615 10.4179685,-4.3615 6.49056,0 10.376627,4.3615 3.886068,4.34082 3.886068,11.6582 0,5.37435 -2.17041,9.1984 -2.14974,3.82406 -6.242513,5.64307 z"
         style="font-size:42.33333206px;letter-spacing:0.79374999px;fill:#ffffff;fill-opacity:1;stroke:none;stroke-width:0.26458332;stroke-opacity:1"
         id="path842" />
      <path
         d="m 37.664366,259.09428 h 4.196126 v 18.74821 q 0,4.96094 1.79834,7.15202 1.798339,2.17041 5.829101,2.17041 4.010091,0 5.808431,-2.17041 1.79834,-2.19108 1.79834,-7.15202 v -18.74821 h 4.196126 v 19.26497 q 0,6.03581 -2.997233,9.11573 -2.976563,3.07991 -8.805664,3.07991 -5.849772,0 -8.847005,-3.07991 -2.976562,-3.07992 -2.976562,-9.11573 z"
         style="font-size:42.33333206px;letter-spacing:0.79374999px;fill:#ffffff;fill-opacity:1;stroke:none;stroke-width:0.26458332;stroke-opacity:1"
         id="path844" />
      <path
         d="m 69.918723,259.09428 h 19.513021 v 3.514 H 74.094179 v 9.13639 h 14.696777 v 3.514 H 74.094179 v 11.18278 h 15.709635 v 3.51399 H 69.918723 Z"
         style="font-size:42.33333206px;letter-spacing:0.79374999px;fill:#ffffff;fill-opacity:1;stroke:none;stroke-width:0.26458332;stroke-opacity:1"
         id="path846" />
      <path
         d="m 97.460197,259.09428 h 19.513023 v 3.514 h -15.33757 v 9.13639 h 14.69678 v 3.514 h -14.69678 v 11.18278 h 15.70964 v 3.51399 H 97.460197 Z"
         style="font-size:42.33333206px;letter-spacing:0.79374999px;fill:#ffffff;fill-opacity:1;stroke:none;stroke-width:0.26458332;stroke-opacity:1"
         id="path848" />
      <path
         d="m 125.00167,259.09428 h 5.6224 l 13.68391,25.81754 v -25.81754 h 4.05144 v 30.86116 h -5.6224 L 129.0531,264.1379 v 25.81754 h -4.05143 z"
         style="font-size:42.33333206px;letter-spacing:0.79374999px;fill:#ffffff;fill-opacity:1;stroke:none;stroke-width:0.26458332;stroke-opacity:1"
         id="path850" />
      <path
         d="m 175.96289,260.10714 v 4.0721 q -2.37711,-1.13688 -4.48551,-1.69499 -2.1084,-0.5581 -4.07211,-0.5581 -3.41064,0 -5.27099,1.32291 -1.83968,1.32292 -1.83968,3.76205 0,2.04639 1.21956,3.10058 1.24024,1.03353 4.67155,1.67432 l 2.52181,0.51677 q 4.67155,0.88883 6.8833,3.14192 2.23242,2.23242 2.23242,5.99447 0,4.48551 -3.0179,6.80062 -2.99723,2.3151 -8.80566,2.3151 -2.19108,0 -4.67155,-0.49609 -2.4598,-0.4961 -5.10563,-1.46761 v -4.29948 q 2.54248,1.42627 4.9816,2.14974 2.43913,0.72347 4.79558,0.72347 3.57601,0 5.51904,-1.4056 1.94303,-1.4056 1.94303,-4.01009 0,-2.27377 -1.4056,-3.55534 -1.38492,-1.28158 -4.56819,-1.92236 l -2.54248,-0.4961 q -4.67155,-0.93017 -6.75928,-2.91455 -2.08773,-1.98437 -2.08773,-5.51904 0,-4.09278 2.87321,-6.44922 2.89388,-2.35645 7.95817,-2.35645 2.17041,0 4.4235,0.39275 2.2531,0.39274 4.60954,1.17822 z"
         style="font-size:42.33333206px;letter-spacing:0.79374999px;fill:#ffffff;fill-opacity:1;stroke:none;stroke-width:0.26458332;stroke-opacity:1"
         id="path852" />
    </g>
  </g>
</svg>
